<svg width="1000" height="1000" viewBox="0 0 1000 1000" fill="none" xmlns="http://www.w3.org/2000/svg">
<path d="M378.644 235.062C552.973 173.855 739.941 203.012 820.644 277.094C718.584 182.284 515.872 158.305 352.904 219.942C128.42 298.971 -11.4611 477.482 40.4718 618.658C90.417 754.429 262.005 806.222 475.312 739.692C486.365 736.245 491.772 723.912 487.135 713.303V713.303C483.149 704.182 473.004 699.469 463.387 702.032C273.594 752.627 133.677 712.09 92.2208 602.19C46.8605 481.94 166.872 309.416 378.644 235.062Z" fill="#E9AE0B"/>
<mask id="mask0_3_124" style="mask-type:alpha" maskUnits="userSpaceOnUse" x="368" y="344" width="591" height="460">
<path d="M379.654 484.738L940.241 344.591C952.415 341.548 962.722 353.907 957.542 365.336L762.847 794.899C758.594 804.284 746.362 806.685 738.877 799.604L628.963 695.631C628.046 694.764 626.565 694.952 625.894 696.022L568.262 787.923C567.137 789.716 564.362 788.762 564.578 786.657L577.447 660.825C578.535 650.185 583.839 640.423 592.174 633.721L816.945 452.994C818.832 451.476 816.902 448.537 814.76 449.665L564.477 581.471C551.339 588.39 543.115 602.016 543.115 616.864V686.311C543.115 688.539 540.021 689.098 539.241 687.01L497.915 576.314C496.092 571.432 492.435 567.453 487.723 565.227L376.884 512.852C364.143 506.832 365.983 488.156 379.654 484.738Z" fill="#D9D9D9"/>
</mask>
<g mask="url(#mask0_3_124)">
<rect x="332.068" y="335.347" width="638.288" height="480.432" fill="#1B8366"/>
<path d="M547.144 703.563C535.296 661 526.672 614.207 522.582 585.714C521.408 577.538 525.638 569.592 532.977 565.803C634.837 513.22 723.334 477.379 814.776 449.436C816.541 448.897 816.95 449.438 815.447 450.509C792.428 466.903 597.316 579.945 574.466 593.174C573.028 594.006 572.221 595.337 572.098 596.993C570.589 617.265 560.089 750.07 547.144 703.563Z" fill="#104F3D"/>
<path d="M754.162 814.063L563.869 805.567C562.813 805.52 561.976 804.659 561.959 803.602L559.911 676.651C559.626 658.933 580.818 649.623 593.673 661.818L754.162 814.063Z" fill="#104F3D"/>
</g>
</svg>
